<svg width="485" height="371" viewBox="0 0 485 371" xmlns="http://www.w3.org/2000/svg">
  <style>
    .n { fill: #000000; }
    @media (prefers-color-scheme: dark) {
      .n { fill: #FAFAFA; }
    }
  </style>
  <path class="n" d="M402.995 183.305L431.111 169.228L339.734 371H274.13L180.411 216.151L112.464 371H0L142.923 58.9565H206.184L299.903 216.151L330.362 131.688H349.106L335.048 180.958L449.855 110.573L407.681 98.8418L417.053 73.0336L455.669 84.7646L461.57 94.1494L421.739 30.8022H398.309L292.874 91.8032V94.1494L370.193 105.88L398.309 30.8022H421.739L381.908 124.65L281.159 112.919L304.589 155.15L297.56 178.612L257.729 112.919C257.729 112.919 248.358 96.4956 264.758 84.7646C281.159 73.0337 398.309 0 417.053 0C435.797 0 485 96.4956 485 105.88C485 115.265 470.942 122.304 470.942 122.304L323.333 216.151L299.903 260.729L194.469 80.0722H154.638L35.1449 349.884H98.4058L180.411 171.574L285.845 349.884H325.676L402.995 183.305Z"/>
</svg>
