<svg width="95" height="34" viewBox="0 0 95 34" fill="none" xmlns="http://www.w3.org/2000/svg">
<path d="M41.3206 29.24C39.9926 29.24 38.8486 28.992 37.8886 28.496C36.9286 28 36.1846 27.296 35.6566 26.384C35.1446 25.472 34.8886 24.392 34.8886 23.144C34.8886 21.928 35.1366 20.864 35.6326 19.952C36.1446 19.04 36.8406 18.328 37.7206 17.816C38.6166 17.288 39.6326 17.024 40.7686 17.024C41.6006 17.024 42.3446 17.16 43.0006 17.432C43.6726 17.704 44.2406 18.096 44.7046 18.608C45.1846 19.12 45.5446 19.744 45.7846 20.48C46.0406 21.2 46.1686 22.016 46.1686 22.928C46.1686 23.216 46.0646 23.44 45.8566 23.6C45.6646 23.744 45.3846 23.816 45.0166 23.816H37.3126V22.088H44.0566L43.6726 22.448C43.6726 21.712 43.5606 21.096 43.3366 20.6C43.1286 20.104 42.8166 19.728 42.4006 19.472C42.0006 19.2 41.4966 19.064 40.8886 19.064C40.2166 19.064 39.6406 19.224 39.1606 19.544C38.6966 19.848 38.3366 20.288 38.0806 20.864C37.8406 21.424 37.7206 22.096 37.7206 22.88V23.048C37.7206 24.36 38.0246 25.344 38.6326 26C39.2566 26.64 40.1686 26.96 41.3686 26.96C41.7846 26.96 42.2486 26.912 42.7606 26.816C43.2886 26.704 43.7846 26.52 44.2486 26.264C44.5846 26.072 44.8806 25.992 45.1366 26.024C45.3926 26.04 45.5926 26.128 45.7366 26.288C45.8966 26.448 45.9926 26.648 46.0246 26.888C46.0566 27.112 46.0086 27.344 45.8806 27.584C45.7686 27.824 45.5686 28.032 45.2806 28.208C44.7206 28.56 44.0726 28.824 43.3366 29C42.6166 29.16 41.9446 29.24 41.3206 29.24ZM49.2901 29.12C48.9381 29.12 48.6421 29.024 48.4021 28.832C48.1781 28.624 48.0581 28.36 48.0421 28.04C48.0421 27.72 48.1781 27.384 48.4501 27.032L52.3381 22.232V23.648L48.6901 19.16C48.4021 18.808 48.2661 18.472 48.2821 18.152C48.2981 17.832 48.4181 17.576 48.6421 17.384C48.8821 17.176 49.1781 17.072 49.5301 17.072C49.8981 17.072 50.2021 17.136 50.4421 17.264C50.6981 17.392 50.9301 17.592 51.1381 17.864L54.0181 21.56H52.9621L55.8661 17.864C56.0901 17.592 56.3221 17.392 56.5621 17.264C56.8021 17.136 57.0981 17.072 57.4501 17.072C57.8181 17.072 58.1141 17.176 58.3381 17.384C58.5621 17.592 58.6741 17.856 58.6741 18.176C58.6901 18.496 58.5541 18.832 58.2661 19.184L54.6421 23.624V22.28L58.5301 27.032C58.8181 27.368 58.9541 27.696 58.9381 28.016C58.9221 28.336 58.7941 28.6 58.5541 28.808C58.3301 29.016 58.0341 29.12 57.6661 29.12C57.3141 29.12 57.0181 29.056 56.7781 28.928C56.5381 28.8 56.3061 28.6 56.0821 28.328L52.9621 24.392H53.9701L50.8741 28.328C50.6661 28.584 50.4421 28.784 50.2021 28.928C49.9621 29.056 49.6581 29.12 49.2901 29.12ZM65.5836 29.24C64.2556 29.24 63.2556 28.864 62.5836 28.112C61.9116 27.344 61.5756 26.224 61.5756 24.752V13.4C61.5756 12.904 61.7036 12.528 61.9596 12.272C62.2156 12.016 62.5836 11.888 63.0636 11.888C63.5436 11.888 63.9116 12.016 64.1676 12.272C64.4396 12.528 64.5756 12.904 64.5756 13.4V24.608C64.5756 25.344 64.7276 25.888 65.0316 26.24C65.3516 26.592 65.7996 26.768 66.3756 26.768C66.5036 26.768 66.6236 26.768 66.7356 26.768C66.8476 26.752 66.9596 26.736 67.0716 26.72C67.2956 26.688 67.4476 26.752 67.5276 26.912C67.6076 27.056 67.6476 27.36 67.6476 27.824C67.6476 28.224 67.5676 28.536 67.4076 28.76C67.2476 28.984 66.9836 29.12 66.6156 29.168C66.4556 29.184 66.2876 29.2 66.1116 29.216C65.9356 29.232 65.7596 29.24 65.5836 29.24ZM70.7277 29.168C70.2477 29.168 69.8797 29.024 69.6237 28.736C69.3677 28.448 69.2397 28.048 69.2397 27.536V18.728C69.2397 18.2 69.3677 17.8 69.6237 17.528C69.8797 17.24 70.2477 17.096 70.7277 17.096C71.2077 17.096 71.5757 17.24 71.8317 17.528C72.1037 17.8 72.2397 18.2 72.2397 18.728V27.536C72.2397 28.048 72.1117 28.448 71.8557 28.736C71.5997 29.024 71.2237 29.168 70.7277 29.168ZM70.7277 14.864C70.1677 14.864 69.7277 14.728 69.4077 14.456C69.1037 14.168 68.9517 13.776 68.9517 13.28C68.9517 12.768 69.1037 12.376 69.4077 12.104C69.7277 11.832 70.1677 11.696 70.7277 11.696C71.3037 11.696 71.7437 11.832 72.0477 12.104C72.3517 12.376 72.5037 12.768 72.5037 13.28C72.5037 13.776 72.3517 14.168 72.0477 14.456C71.7437 14.728 71.3037 14.864 70.7277 14.864ZM77.6609 29.192C77.1809 29.192 76.8049 29.064 76.5329 28.808C76.2769 28.536 76.1489 28.152 76.1489 27.656V19.52H75.0449C74.6609 19.52 74.3649 19.424 74.1569 19.232C73.9489 19.024 73.8449 18.744 73.8449 18.392C73.8449 18.024 73.9489 17.744 74.1569 17.552C74.3649 17.36 74.6609 17.264 75.0449 17.264H77.0129L76.1489 18.056V17.24C76.1489 15.592 76.5649 14.36 77.3969 13.544C78.2289 12.712 79.4289 12.224 80.9969 12.08L81.8129 12.008C82.1329 11.976 82.3889 12.032 82.5809 12.176C82.7729 12.304 82.9009 12.48 82.9649 12.704C83.0289 12.912 83.0369 13.128 82.9889 13.352C82.9409 13.576 82.8369 13.776 82.6769 13.952C82.5329 14.112 82.3409 14.2 82.1009 14.216L81.7649 14.24C80.8529 14.304 80.1889 14.536 79.7729 14.936C79.3569 15.336 79.1489 15.944 79.1489 16.76V17.648L78.7649 17.264H81.1889C81.5729 17.264 81.8689 17.36 82.0769 17.552C82.2849 17.744 82.3889 18.024 82.3889 18.392C82.3889 18.744 82.2849 19.024 82.0769 19.232C81.8689 19.424 81.5729 19.52 81.1889 19.52H79.1489V27.656C79.1489 28.68 78.6529 29.192 77.6609 29.192ZM86.8407 33.512C86.4887 33.512 86.2007 33.416 85.9767 33.224C85.7527 33.048 85.6167 32.808 85.5687 32.504C85.5367 32.2 85.5927 31.88 85.7367 31.544L87.3687 27.92V29.168L83.0007 19.064C82.8567 18.712 82.8087 18.384 82.8567 18.08C82.9047 17.776 83.0487 17.536 83.2887 17.36C83.5447 17.168 83.8887 17.072 84.3207 17.072C84.6887 17.072 84.9847 17.16 85.2087 17.336C85.4327 17.496 85.6327 17.808 85.8087 18.272L89.0487 26.36H88.3287L91.6407 18.248C91.8167 17.8 92.0247 17.496 92.2647 17.336C92.5047 17.16 92.8247 17.072 93.2247 17.072C93.5767 17.072 93.8567 17.168 94.0647 17.36C94.2727 17.536 94.4007 17.776 94.4487 18.08C94.4967 18.368 94.4407 18.688 94.2807 19.04L88.4487 32.36C88.2407 32.808 88.0167 33.112 87.7767 33.272C87.5367 33.432 87.2247 33.512 86.8407 33.512Z" fill="white"/>
<path d="M32.4058 14.3284L34.6667 13.228L27.3188 29H22.0435L14.5072 16.8959L9.04348 29H0L11.4928 4.60846H16.5797L24.1159 16.8959L26.5652 10.2937H28.0725L26.942 14.145L36.1739 8.64315L32.7826 7.72618L33.5362 5.70883L36.6414 6.62581L37.1159 7.35939L33.913 2.40772H32.029L23.5507 7.17599V7.35939L29.7681 8.27636L32.029 2.40772H33.913L30.7101 9.74352L22.6087 8.82655L24.4928 12.1277L23.9275 13.9616L20.7246 8.82655C20.7246 8.82655 19.971 7.54278 21.2899 6.62581C22.6087 5.70883 32.029 0 33.5362 0C35.0435 0 39 7.54278 39 8.27636C39 9.00994 37.8696 9.56013 37.8696 9.56013L26 16.8959L24.1159 20.3804L15.6377 6.25902H12.4348L2.82609 27.3494H7.91304L14.5072 13.4114L22.9855 27.3494H26.1884L32.4058 14.3284Z" fill="#FAFAFA"/>
</svg>
